<?xml version="1.0" standalone="no"?>
<!DOCTYPE svg PUBLIC "-//W3C//DTD SVG 20010904//EN"
 "http://www.w3.org/TR/2001/REC-SVG-20010904/DTD/svg10.dtd">
<svg version="1.0" xmlns="http://www.w3.org/2000/svg"
 width="122.000000pt" height="122.000000pt" viewBox="0 0 122.000000 122.000000"
 preserveAspectRatio="xMidYMid meet">
<metadata>
Created by potrace 1.14, written by Peter Selinger 2001-2017
</metadata>
<g transform="translate(0.000000,122.000000) scale(0.100000,-0.100000)"
fill="#000000" stroke="none">
<path d="M0 610 l0 -610 610 0 610 0 0 610 0 610 -610 0 -610 0 0 -610z m415
210 c96 -96 179 -170 189 -170 10 0 90 71 182 163 91 89 173 166 184 171 34
16 70 -8 70 -46 0 -29 -22 -54 -206 -235 -113 -112 -212 -203 -220 -203 -30 0
-57 23 -249 212 -174 171 -195 195 -195 224 0 35 19 53 54 54 12 0 86 -65 191
-170z m-168 -218 c23 -15 30 -59 30 -187 0 -91 -4 -138 -14 -157 -14 -30 -40
-36 -74 -18 -18 10 -19 23 -19 180 0 150 2 170 18 179 20 12 43 13 59 3z m776
-4 c15 -11 17 -35 19 -177 1 -149 -1 -165 -17 -178 -28 -20 -62 -16 -79 9 -13
18 -16 52 -16 168 0 133 2 148 20 168 23 25 48 28 73 10z"/>
</g>
</svg>
